<svg xmlns="http://www.w3.org/2000/svg" xmlns:v="https://vecta.io/nano" width="32" height="32" viewBox="0 0 612 648"><path fill="#000" d="M580.529 165.226C562.556 134.278 341.907 6.45 305.981 6.45S49.319 133.959 31.443 165.225s-17.972 286.291-.003 317.557C49.415 514.047 270.077 641.55 305.981 641.55s256.584-127.664 274.544-158.771 17.973-286.605.004-317.553zm-200.163 355.03c-4.916 0-50.74-44.372-47.136-47.993 1.081-1.082 7.77-1.842 21.77-2.273v-1.198l1.16-105.877c.052-2.51-.55-4.251-.55-7.251h-99.146l.044 37.634 1.651 52.764c.28 5.635-1.956 7.396-7.124 7.374l-37.726-.104c-5.085.015-7.277-1.893-7.121-7.573l1.926-106.424L206 181.951v-3.929c-12-.433-20.324-1.194-21.411-2.287-3.622-3.618 42.846-47.989 47.742-47.989 4.906 0 51.073 44.382 47.47 47.989-1.083 1.084-9.801 1.844-20.801 2.278v3.925c-3 31.937-2.52 98.725-3.262 130.725h99.555l-.031-37.038-1.46-66.717c-.13-4.205 1.176-6.413 5.224-6.447l41.217-.069c4.297.021 5.674 2.136 5.58 6.679l-2.429 145.608c-.088 28.654.606 83.211 1.606 113.578v1.72c11 .432 20.86 1.195 21.946 2.286 3.606 3.621-41.671 47.993-46.58 47.993z"/></svg>